<svg version="1" xmlns="http://www.w3.org/2000/svg" width="501.333" height="501.333" viewBox="0 0 376.000000 376.000000"><path d="M181.5 60.7c-18.3 1.8-36.3 8.7-49.5 19.1-7.9 6.2-17.5 16.9-22.4 25.2-6.1 10.2-9.2 18.2-11.5 29.5-1.8 8.4-1.9 15-2 95.2L96 316h185.1l-3-4.3c-6.7-9.4-17.5-24.2-18-24.7-.3-.3-1-1.3-1.6-2.2-1-1.6-5.7-8.2-24.2-33.6-4.6-6.3-8.3-11.7-8.3-12.2 0-.4 2.6-2.3 5.7-4 25.4-14.3 42.4-37.4 47.9-65 .3-1.9.8-8.5 1-14.5 1.1-34.2-15.8-65-45.5-82.5-15.1-8.8-37-13.9-53.6-12.3zm24.4 61.7c5.6 2.9 12.8 11.3 15.2 17.5 6.7 17.7-.6 36.3-17.7 44.7-16.8 8.3-37.4 1.2-46-15.8-3.2-6.3-3.9-9.4-3.7-17.6.3-12.2 8.6-24.7 20-29.9 10.3-4.7 21.7-4.3 32.2 1.1z"/></svg>