<svg version="1" xmlns="http://www.w3.org/2000/svg" width="501.333" height="501.333" viewBox="0 0 376.000000 376.000000"><path d="M177.5 4.1c-32.3 3-60.5 16-83 38.4C74.1 62.8 62.3 86.1 56.2 118c-.7 3.6-1.1 47.9-1.1 130.2L55 373h133.5c110.8 0 133.5-.2 132.8-1.3-.4-.8-8.9-12.5-18.8-26.1-9.9-13.6-19-26.2-20.2-27.9-5.3-7.4-7.2-10.1-14.2-19.9-4.1-5.7-7.7-10.5-8-10.8-.3-.3-1-1.2-1.6-2.2-.5-.9-4.5-6.5-8.8-12.4-6.2-8.6-7.5-11-6.5-11.9.7-.6 5.4-3.6 10.3-6.5 24.5-14.4 42.7-33.6 54.8-57.5 3.1-6.2 8-19.2 9.2-24.2.3-1 .9-3.6 1.4-5.8 2.6-10.1 3.6-37.2 1.9-48.5-3.5-23.5-13.8-46.9-28.6-65-18.6-22.7-47.7-40.8-74-46-2.6-.5-5.8-1.2-7.1-1.4-7.9-1.7-23.7-2.4-33.6-1.5zm26.6 84.8c29.8 9.3 43.8 43.4 29.5 71.4-4.2 8.3-7.2 11.8-14.7 17.5-15.7 11.8-37.3 13.6-54.3 4.4-6.7-3.6-17.6-14.4-20.8-20.8-15.6-30.3.6-65.9 33.7-73.8 7.7-1.8 18.3-1.3 26.6 1.3z"/></svg>