<?xml version="1.0" standalone="no"?>
<!DOCTYPE svg PUBLIC "-//W3C//DTD SVG 20010904//EN"
 "http://www.w3.org/TR/2001/REC-SVG-20010904/DTD/svg10.dtd">
<svg version="1.0" xmlns="http://www.w3.org/2000/svg"
 width="700.000000pt" height="700.000000pt" viewBox="0 0 700.000000 700.000000"
 preserveAspectRatio="xMidYMid meet">
<metadata>
Created by potrace 1.11, written by Peter Selinger 2001-2013
</metadata>
<g transform="translate(0.000000,700.000000) scale(0.100000,-0.100000)"
fill="#000000" stroke="none">
<path d="M0 3500 l0 -3500 3500 0 3500 0 0 3500 0 3500 -3500 0 -3500 0 0
-3500z m4008 2789 c805 -88 1441 -708 1548 -1509 55 -419 -44 -846 -279 -1200
-253 -381 -671 -660 -1112 -745 -49 -9 -105 -20 -123 -23 l-32 -7 775 -1050
c426 -577 775 -1050 775 -1052 0 -2 -244 -3 -542 -3 l-543 1 -156 212 c-86
116 -577 783 -1093 1481 -515 697 -936 1272 -936 1277 0 5 343 9 823 9 661 0
835 3 887 14 201 43 385 160 514 326 175 225 226 531 135 804 -42 127 -101
225 -193 323 -92 98 -198 171 -311 214 -167 65 -121 62 -1140 68 l-930 6 -317
430 c-175 236 -318 431 -318 432 0 9 2484 2 2568 -8z m-393 -1163 c95 -45 167
-151 181 -266 5 -43 1 -70 -16 -120 -19 -59 -268 -530 -280 -530 -7 0 -209
374 -257 475 -33 69 -38 90 -38 150 0 173 133 315 295 315 48 0 78 -7 115 -24z"/>
<path d="M3465 4921 c-49 -21 -72 -74 -55 -126 15 -44 44 -65 93 -65 49 0 83
23 97 66 13 39 2 80 -30 109 -21 19 -77 28 -105 16z"/>
</g>
</svg>
