<svg id="fb885ea4-12b2-4d5d-85ad-e5eb1c37f6aa" data-name="Layer 1" xmlns="http://www.w3.org/2000/svg" viewBox="0 0 500 500"><title>Customizable-GeofencesArtboard 1</title><circle cx="250" cy="250" r="250" style="fill:#479131"/><line x1="92.52" y1="184.63" x2="93.55" y2="304.63" style="fill:#fff"/><rect x="88.04" y="184.62" width="10" height="120" transform="translate(-2.08 0.8) rotate(-0.49)" style="fill:#fff"/><rect x="159.76" y="184.62" width="10" height="120" transform="translate(-2.08 1.41) rotate(-0.49)" style="fill:#fff"/><line x1="128.06" y1="184.63" x2="129.08" y2="304.63" style="fill:#fff"/><rect x="123.57" y="184.62" width="10" height="120" transform="translate(-2.08 1.11) rotate(-0.49)" style="fill:#fff"/><path d="M107.14,289.69H78.93a12.5,12.5,0,0,1,0-25h28.21a12.5,12.5,0,0,1,0,25Z" style="fill:#479131"/><path d="M105.6,284.69H80.47a7.5,7.5,0,1,1,0-15H105.6a7.5,7.5,0,0,1,0,15Z" style="fill:#fff"/><path d="M142.68,223.17H114.46a12.5,12.5,0,0,1,0-25h28.22a12.5,12.5,0,0,1,0,25Z" style="fill:#479131"/><path d="M141.13,218.17H116a7.5,7.5,0,1,1,0-15h25.13a7.5,7.5,0,0,1,0,15Z" style="fill:#fff"/><path d="M178.87,258.85H150.65a12.5,12.5,0,1,1,0-25h28.22a12.5,12.5,0,0,1,0,25Z" style="fill:#479131"/><path d="M177.33,253.85H152.2a7.5,7.5,0,0,1,0-15h25.13a7.5,7.5,0,0,1,0,15Z" style="fill:#fff"/><polygon points="336.88 137.27 430.85 191.52 430.85 300.02 336.88 354.27 242.92 300.02 242.92 191.52 336.88 137.27" style="fill:#fff"/><path d="M327.73,218.57a9.25,9.25,0,0,1,5-9.73,9.58,9.58,0,0,1,8.39,17.2c-5.66,2.76-12.4-1.11-13.35-7.47M315.33,228l19.35,39.68,15-24,5.92-9.48,1.68-2.68.19-.31a25.22,25.22,0,0,0,1-24.25c-6-12.39-20.56-17.75-32.45-12l-.06,0-.05,0a23.48,23.48,0,0,0-12.42,15.56A25.52,25.52,0,0,0,315.33,228Z" style="fill:#479131;fill-rule:evenodd"/></svg>