<svg id="b70ef48a-5aa5-4702-9166-21a33a87e0ae" data-name="Layer 1" xmlns="http://www.w3.org/2000/svg" viewBox="0 0 500 500"><title>Infinite-UsersArtboard 1</title><circle cx="250" cy="250" r="250" style="fill:#479131"/><path d="M71.94,287c-21.51,0-39-16.6-39-37s17.5-37,39-37c20.18,0,53.18,30.54,56.87,34l3.94,3.72-4,3.63C125,257.7,92.07,287,71.94,287Zm0-64c-16,0-29,12.11-29,27s13,27,29,27c6.54,0,17.5-5.23,30.86-14.75,6.12-4.35,11.52-8.73,15-11.68-3.53-3.1-9-7.72-15.18-12.3C89.34,228.42,78.43,223,71.94,223Z" style="fill:#fff"/><path d="M178.92,287c-20.13,0-53.1-29.31-56.8-32.65l-4-3.63,3.94-3.72c3.69-3.48,36.68-34,56.87-34,21.51,0,39,16.6,39,37S200.43,287,178.92,287ZM133,250.58c3.53,3,9,7.37,15.1,11.74,13.33,9.47,24.26,14.69,30.79,14.69,16,0,29-12.11,29-27s-13-27-29-27c-6.49,0-17.4,5.43-30.71,15.29C142,242.86,136.56,247.48,133,250.58Z" style="fill:#fff"/><path d="M345.17,246.36H345c-29.59-1-53.69-25.62-53.73-55a55.87,55.87,0,0,1,16.34-39.22,52.56,52.56,0,0,1,75.11,0,55.82,55.82,0,0,1,16.33,39.22c0,29.37-24.14,54-53.73,55Zm0-100a42.93,42.93,0,0,0-30.48,12.86,45.79,45.79,0,0,0-13.41,32.13c0,24,19.71,44.15,43.89,45,24.19-.86,43.86-21,43.89-45h0a45.71,45.71,0,0,0-13.41-32.13A42.91,42.91,0,0,0,345.17,146.36Z" style="fill:#fff"/><path d="M446.23,358.64h-10c0-61.59-40.85-111.7-91.06-111.7s-91.05,50.11-91.05,111.7h-10c0-67.11,45.33-121.7,101.05-121.7S446.23,291.53,446.23,358.64Z" style="fill:#fff"/></svg>