<svg id="ad666cfb-7cb8-4d37-8bb8-0ad36615bc2e" data-name="Layer 1"
    xmlns="http://www.w3.org/2000/svg" viewBox="0 0 500 720">
    <title>Leaning Ranger Pin</title>
    <path d="M159.4,229.21c12.57-39.74,48.47-68.41,90.78-68.41,52.79,0,95.57,44.61,95.57,99.65S303,360.1,250.18,360.1c-65.52,0-111-67.08-90.78-130.89M.51,260.45V720.1L250.18,564l98.66-61.67,27.87-17.43,3.28-2.05c71.88-45.7,119.87-128.22,119.87-222.43,0-143.55-111.42-260-249-260.34h-1.35c-74.68.2-141.66,34.6-187.29,89C22.28,136.68.51,197.2.51,260.45Z" style="fill:#479131;fill-rule:evenodd"/>
</svg>