<svg xmlns="http://www.w3.org/2000/svg" 
    xmlns:xlink="http://www.w3.org/1999/xlink" viewBox="0 0 111 65">
    <defs>
        <path id="a" d="M0 .294h92.72v17.622H0z"/>
        <path d="M.109 3.805c0 .582.126 1.14.373 1.656L3.5 11.882c.05.11.158.179.275.179.117 0 .224-.07.274-.179l3.014-6.417a3.8 3.8 0 0 0 .376-1.66c0-2.072-1.645-3.758-3.664-3.758C1.752.047.109 1.733.109 3.805zm2.409.035c0-.698.546-1.264 1.22-1.264.675 0 1.222.566 1.222 1.264 0 .699-.547 1.264-1.221 1.264-.675 0-1.221-.565-1.221-1.264z" id="c"/>
    </defs>
    <g fill="none" fill-rule="evenodd">
        <path d="M47.586 9.897C37.268 12.31 32.57 19.617 31.19 29.932c10.072-.525 16.29-6.188 16.396-20.035M80.06 29.932C78.717 19.617 74.018 12.31 63.7 9.897c.105 13.846 6.324 19.51 16.36 20.035" fill="#6B489C"/>
        <path d="M39.07 41.435l.106.035.424.035.637.071c9.646 1.118 22.79 1.05 32.084-.14 3.498-.455 6.466-1.049 8.516-1.818.07-3.322-.035-5.77-.424-8.707-10.883-.559-17.597-6.678-17.703-21.644-2.262-.559-4.275-.804-7.067-.873-2.792.07-4.806.314-7.067.873-.142 14.966-6.856 21.085-17.704 21.644-.388 2.937-.53 5.385-.459 8.707 2.085.77 5.088 1.398 8.658 1.817" fill="#6B489C"/>
        <path d="M30.413 40.317c.036 1.608.141 3.287.248 4.966 8.445 4.23 41.519 4.23 49.93 0 .14-1.68.21-3.358.246-4.966-9.788 3.671-40.601 3.671-50.424 0" fill="#6B489C"/>
        <g transform="translate(9 39.604)">
            <mask id="b" fill="#fff">
                <use xlink:href="#a"/>
            </mask>
            <path d="M72.544.33v.384a79.403 79.403 0 0 1-.248 5.035l-.035.384-.354.175c-8.62 4.336-41.907 4.336-50.564 0l-.354-.175-.035-.384c-.106-1.679-.212-3.357-.247-5.035v-.42C8.233 1.308 0 3.406 0 7.147c0 5.945 20.778 10.77 46.36 10.77 25.618 0 46.36-4.825 46.36-10.77 0-3.706-7.986-5.77-20.176-6.818" fill="#6B489C" mask="url(#b)"/>
        </g>
        <g transform="translate(51.829 26.902)">
            <mask id="d" fill="#fff">
                <use xlink:href="#c"/>
            </mask>
            <path fill="#FEFEFE" mask="url(#d)" d="M-1.418 13.642H8.964V-1.534H-1.418z"/>
        </g>
    </g>
</svg>